<svg width="1080" height="1920" viewBox="0 0 1080 1920" fill="none" xmlns="http://www.w3.org/2000/svg">
<path d="M693.194 535.12V550.15H679.424V535.12H693.194Z" fill="white"/>
<path d="M892.276 564.01C894.376 564.01 896.056 563.23 897.316 561.67C898.636 560.11 899.296 558.07 899.296 555.55V547.09C899.296 544.69 898.666 542.77 897.406 541.33C896.146 539.83 894.496 539.08 892.456 539.08H886.876C884.476 539.08 882.466 539.92 880.846 541.6C879.226 543.28 878.296 545.5 878.056 548.26V556C878.476 558.4 879.436 560.35 880.936 561.85C882.496 563.29 884.326 564.01 886.426 564.01H892.276Z" fill="white"/>
<path d="M995.783 564.19C998.003 564.19 999.773 563.44 1001.09 561.94C1002.41 560.38 1003.07 558.37 1003.07 555.91V547.18C1003.07 544.72 1002.41 542.74 1001.09 541.24C999.773 539.68 998.033 538.9 995.873 538.9H988.133C985.973 538.9 984.233 539.68 982.913 541.24C981.593 542.74 980.933 544.72 980.933 547.18V555.91C980.933 558.37 981.593 560.38 982.913 561.94C984.233 563.44 985.943 564.19 988.043 564.19H995.783Z" fill="white"/>
<path d="M1163.54 546.19V546.91H1142.12V546.64C1142.12 544.18 1142.78 542.2 1144.1 540.7C1145.42 539.2 1147.16 538.45 1149.32 538.45H1156.61C1158.71 538.45 1160.39 539.17 1161.65 540.61C1162.91 541.99 1163.54 543.85 1163.54 546.19Z" fill="white"/>
<path fill-rule="evenodd" clip-rule="evenodd" d="M1080 0H0V1920H1080V0ZM732.973 571.75C736.513 573.73 740.593 574.72 745.213 574.72H754.933C759.493 574.72 763.513 573.73 766.993 571.75C770.473 569.71 773.173 566.86 775.093 563.2C777.013 559.48 777.973 555.19 777.973 550.33H765.733C765.733 554.35 764.713 557.59 762.673 560.05C760.693 562.51 758.113 563.74 754.933 563.74H745.213C741.973 563.74 739.363 562.51 737.383 560.05C735.403 557.53 734.413 554.26 734.413 550.24V534.76C734.413 530.74 735.433 527.5 737.473 525.04C739.513 522.52 742.213 521.26 745.573 521.26H755.113C758.233 521.26 760.753 522.37 762.673 524.59C764.593 526.75 765.553 529.63 765.553 533.23H777.793C777.793 528.67 776.833 524.68 774.913 521.26C773.053 517.78 770.413 515.08 766.993 513.16C763.573 511.24 759.613 510.28 755.113 510.28H745.573C740.893 510.28 736.753 511.27 733.153 513.25C729.613 515.23 726.853 518.05 724.873 521.71C722.953 525.31 721.993 529.48 721.993 534.22V550.78C721.993 555.52 722.953 559.72 724.873 563.38C726.793 566.98 729.493 569.77 732.973 571.75ZM657.824 559.87H667.904V574H679.424V559.87H693.194V574H704.714V559.87H714.794V549.97H704.714V535.3H714.794V525.4H704.714V511H693.194V525.4H679.424V511H667.904V525.4H657.824V535.3H667.904V549.97H657.824V559.87ZM800.876 574C795.536 574 791.606 572.89 789.086 570.67C786.626 568.39 785.396 564.88 785.396 560.14V511H797.636V559.42C797.636 560.86 797.966 561.91 798.626 562.57C799.286 563.23 800.336 563.56 801.776 563.56H806.636V574H800.876ZM815.807 569.95C818.687 573.13 822.497 574.72 827.237 574.72H833.177C835.037 574.72 836.957 574.12 838.937 572.92C840.977 571.72 842.687 570.16 844.067 568.24V574H855.407V529.09H843.167V555.1C842.507 557.8 841.367 559.99 839.747 561.67C838.127 563.29 836.327 564.1 834.347 564.1H829.127C827.507 564.1 826.187 563.5 825.167 562.3C824.207 561.04 823.727 559.42 823.727 557.44V529.09H811.487V557.26C811.487 562.48 812.927 566.71 815.807 569.95ZM887.506 574.72C885.646 574.72 883.756 574.12 881.836 572.92C879.916 571.72 878.356 570.16 877.156 568.24V574H865.816V511H878.056V532.6C879.256 531.34 880.726 530.32 882.466 529.54C884.266 528.76 885.976 528.37 887.596 528.37H893.896C897.376 528.37 900.436 529.12 903.076 530.62C905.776 532.06 907.846 534.13 909.286 536.83C910.786 539.53 911.536 542.65 911.536 546.19V556.45C911.536 560.05 910.786 563.23 909.286 565.99C907.786 568.75 905.686 570.91 902.986 572.47C900.286 573.97 897.196 574.72 893.716 574.72H887.506ZM927.422 572.47C930.362 573.97 933.722 574.72 937.502 574.72H944.612C950.192 574.72 954.662 573.07 958.022 569.77C961.442 566.47 963.152 562.09 963.152 556.63H951.002C951.002 558.91 950.402 560.74 949.202 562.12C948.062 563.5 946.532 564.19 944.612 564.19H937.682C935.582 564.19 933.872 563.44 932.552 561.94C931.232 560.38 930.572 558.37 930.572 555.91V547.18C930.572 544.72 931.202 542.74 932.462 541.24C933.782 539.68 935.492 538.9 937.592 538.9H944.522C946.322 538.9 947.762 539.53 948.842 540.79C949.982 541.99 950.552 543.61 950.552 545.65H962.702C962.702 542.23 961.952 539.23 960.452 536.65C958.952 534.01 956.822 531.97 954.062 530.53C951.302 529.09 948.122 528.37 944.522 528.37H937.412C933.632 528.37 930.302 529.12 927.422 530.62C924.542 532.12 922.292 534.22 920.672 536.92C919.112 539.62 918.332 542.74 918.332 546.28V556.81C918.332 560.35 919.112 563.47 920.672 566.17C922.292 568.87 924.542 570.97 927.422 572.47ZM987.863 574.72C984.083 574.72 980.723 574 977.783 572.56C974.903 571.06 972.653 568.96 971.033 566.26C969.473 563.56 968.693 560.44 968.693 556.9V546.37C968.693 542.83 969.503 539.71 971.123 537.01C972.743 534.25 974.993 532.12 977.873 530.62C980.813 529.12 984.173 528.37 987.953 528.37H996.053C999.833 528.37 1003.16 529.12 1006.04 530.62C1008.98 532.12 1011.26 534.25 1012.88 537.01C1014.5 539.71 1015.31 542.83 1015.31 546.37V556.9C1015.31 560.44 1014.5 563.56 1012.88 566.26C1011.26 568.96 1008.98 571.06 1006.04 572.56C1003.16 574 999.803 574.72 995.963 574.72H987.863ZM1035.27 529.09H1023.93V574H1036.17V547.27C1036.71 544.81 1037.79 542.83 1039.41 541.33C1041.09 539.77 1042.98 538.99 1045.08 538.99H1050.48C1052.04 538.99 1053.3 539.56 1054.26 540.7C1055.28 541.84 1055.79 543.34 1055.79 545.2V574H1068.03V544.75C1068.03 539.83 1066.56 535.87 1063.62 532.87C1060.74 529.87 1056.9 528.37 1052.1 528.37H1046.7C1044.6 528.37 1042.5 528.94 1040.4 530.08C1038.3 531.16 1036.59 532.63 1035.27 534.49V529.09ZM1077.9 529.09H1089.24V534.49C1090.56 532.63 1092.27 531.16 1094.37 530.08C1096.47 528.94 1098.57 528.37 1100.67 528.37H1106.07C1110.87 528.37 1114.71 529.87 1117.59 532.87C1120.53 535.87 1122 539.83 1122 544.75V574H1109.76V545.2C1109.76 543.34 1109.25 541.84 1108.23 540.7C1107.27 539.56 1106.01 538.99 1104.45 538.99H1099.05C1096.95 538.99 1095.06 539.77 1093.38 541.33C1091.76 542.83 1090.68 544.81 1090.14 547.27V574H1077.9V529.09ZM1139.24 572.65C1142.18 574.03 1145.54 574.72 1149.32 574.72H1156.16C1159.94 574.72 1163.27 574.09 1166.15 572.83C1169.09 571.57 1171.37 569.77 1172.99 567.43C1174.61 565.09 1175.42 562.42 1175.42 559.42H1163.36C1163.36 560.92 1162.7 562.15 1161.38 563.11C1160.12 564.01 1158.44 564.46 1156.34 564.46H1149.32C1147.16 564.46 1145.45 563.86 1144.19 562.66C1142.93 561.46 1142.3 559.87 1142.3 557.89V555.73H1175.6V546.19C1175.6 540.79 1173.86 536.47 1170.38 533.23C1166.9 529.99 1162.28 528.37 1156.52 528.37H1149.32C1145.54 528.37 1142.18 529.12 1139.24 530.62C1136.36 532.12 1134.11 534.22 1132.49 536.92C1130.87 539.62 1130.06 542.74 1130.06 546.28V557.89C1130.06 561.19 1130.87 564.13 1132.49 566.71C1134.11 569.23 1136.36 571.21 1139.24 572.65ZM1201.26 574.72C1197.48 574.72 1194.12 573.97 1191.18 572.47C1188.3 570.97 1186.05 568.87 1184.43 566.17C1182.87 563.47 1182.09 560.35 1182.09 556.81V546.28C1182.09 542.74 1182.87 539.62 1184.43 536.92C1186.05 534.22 1188.3 532.12 1191.18 530.62C1194.06 529.12 1197.39 528.37 1201.17 528.37H1208.28C1211.88 528.37 1215.06 529.09 1217.82 530.53C1220.58 531.97 1222.71 534.01 1224.21 536.65C1225.71 539.23 1226.46 542.23 1226.46 545.65H1214.31C1214.31 543.61 1213.74 541.99 1212.6 540.79C1211.52 539.53 1210.08 538.9 1208.28 538.9H1201.35C1199.25 538.9 1197.54 539.68 1196.22 541.24C1194.96 542.74 1194.33 544.72 1194.33 547.18V555.91C1194.33 558.37 1194.99 560.38 1196.31 561.94C1197.63 563.44 1199.34 564.19 1201.44 564.19H1208.37C1210.29 564.19 1211.82 563.5 1212.96 562.12C1214.16 560.74 1214.76 558.91 1214.76 556.63H1226.91C1226.91 562.09 1225.2 566.47 1221.78 569.77C1218.42 573.07 1213.95 574.72 1208.37 574.72H1201.26ZM1241.91 570.4C1244.37 572.8 1248.24 574 1253.52 574H1262.16V563.56H1254.42C1253.04 563.56 1252.02 563.17 1251.36 562.39C1250.76 561.61 1250.46 560.38 1250.46 558.7V539.53H1262.16V529.09H1250.46V515.5H1238.58V529.09H1230.3V539.53H1238.22V559.24C1238.22 564.28 1239.45 568 1241.91 570.4Z" fill="white"/>
</svg>
