<?xml version="1.0" encoding="utf-8"?>
<!-- Generator: Adobe Illustrator 24.0.1, SVG Export Plug-In . SVG Version: 6.00 Build 0)  -->
<svg version="1.1" id="Layer_1" width="1037.5px" height="118px" xmlns="http://www.w3.org/2000/svg" xmlns:xlink="http://www.w3.org/1999/xlink" x="0px" y="0px"
	 viewBox="0 0 1037.5 118" style="enable-background:new 0 0 1037.5 118;" xml:space="preserve">
<style type="text/css">
	.st0{fill:#FFFFFF;}
	.st1{fill:none;}
</style>
<g>
	<polyline class="st1" points="0,0 1037.5,0 1037.5,118 0,118 	"/>
	<g>
		<g>
			<path class="st0" d="M1023.3,53.1h-31.2V52c0-3.7,1-6.7,3.1-8.9s4.7-3.4,8-3.4h9.7c3.1,0,5.6,1.1,7.6,3.2c1.9,2.2,2.9,5,2.9,8.5
				L1023.3,53.1z M1012.3,90c7.3,0,13.2-1.8,17.6-5.5c4.5-3.7,6.7-8.6,6.7-14.6H1023c0,2.6-1,4.6-2.9,6.2s-4.5,2.3-7.7,2.3h-9.2
				c-3.3,0-5.9-1-7.9-2.9s-2.9-4.5-2.9-7.7v-4.3h44.5v-12c0-7-2.2-12.7-6.6-16.9c-4.4-4.2-10.2-6.4-17.5-6.4h-9.6
				c-4.9,0-9.2,1-12.9,2.9c-3.7,2-6.6,4.7-8.6,8.3s-3.1,7.7-3.1,12.3v16.1c0,4.4,1,8.3,3.1,11.6c2,3.4,4.9,6,8.6,7.8
				c3.7,1.8,8,2.8,12.9,2.8L1012.3,90z M946.3,90c7,0,12.7-2.2,17-6.5s6.4-10,6.4-17h-13.6c0,3.4-0.9,6.2-2.7,8.4s-4.2,3.2-7.1,3.2
				h-9.5c-3.2,0-5.8-1.1-7.7-3.4c-2-2.2-2.9-5.2-2.9-8.8V52.5c0-3.7,1-6.7,2.9-9c2-2.3,4.5-3.5,7.6-3.5h9.5c2.8,0,5.1,0.9,6.8,2.7
				s2.6,4.1,2.6,7h13.6c0-6.5-2.1-11.7-6.3-15.7s-9.7-5.9-16.6-5.9h-9.6c-4.8,0-9,1-12.7,2.9c-3.7,2-6.5,4.7-8.5,8.3s-3,7.7-3,12.3
				v15.1c0,7,2.2,12.6,6.7,16.8c4.4,4.2,10.3,6.4,17.7,6.4L946.3,90L946.3,90z M857.6,89V52.8c0.7-3.7,2.3-6.7,4.8-9.1
				s5.3-3.5,8.4-3.5h7.4c2.4,0,4.3,0.9,5.8,2.7s2.2,4.1,2.2,7V89H900V49.5c0-6.4-1.9-11.6-5.6-15.5c-3.7-3.9-8.7-5.9-14.8-5.9h-7.4
				c-2.9,0-5.8,0.8-8.6,2.4s-5.2,3.7-7,6.4v-7.8h-12.8V89H857.6z M817.9,53.1h-31.2V52c0-3.7,1-6.7,3.1-8.9s4.7-3.4,8-3.4h9.7
				c3.1,0,5.6,1.1,7.6,3.2c1.9,2.2,2.9,5,2.9,8.5L817.9,53.1z M806.8,90c7.3,0,13.2-1.8,17.6-5.5c4.5-3.7,6.7-8.6,6.7-14.6h-13.6
				c0,2.6-1,4.6-2.9,6.2s-4.5,2.3-7.7,2.3h-9.2c-3.3,0-5.9-1-7.9-2.9s-2.9-4.5-2.9-7.7v-4.3h44.5v-12c0-7-2.2-12.7-6.6-16.9
				c-4.4-4.2-10.2-6.4-17.5-6.4h-9.6c-4.9,0-9.2,1-12.9,2.9c-3.7,2-6.6,4.7-8.6,8.3s-3.1,7.7-3.1,12.3v16.1c0,4.4,1,8.3,3.1,11.6
				c2,3.4,4.9,6,8.6,7.8c3.7,1.8,8,2.8,12.9,2.8L806.8,90z M758,89V29.1h-13.8V89H758z M751,22.4c2.7,0,4.9-0.8,6.6-2.5
				s2.5-3.7,2.5-6.3s-0.8-4.7-2.5-6.3s-3.9-2.5-6.6-2.5s-4.9,0.8-6.5,2.5c-1.6,1.6-2.5,3.7-2.5,6.3s0.8,4.7,2.5,6.3
				S748.3,22.4,751,22.4z M711,89V56c0-4.5,1.4-8.1,4.2-10.9s6.5-4.2,11-4.2h7.2v-12h-7.2c-3.2,0-6.3,0.8-9.3,2.3s-5.3,3.6-6.9,6.1
				v-8.2h-12.8V89H711z M671.2,53.1H640V52c0-3.7,1-6.7,3.1-8.9s4.7-3.4,8-3.4h9.7c3.1,0,5.6,1.1,7.6,3.2c1.9,2.2,2.9,5,2.9,8.5
				L671.2,53.1z M660.2,90c7.3,0,13.2-1.8,17.6-5.5c4.5-3.7,6.7-8.6,6.7-14.6h-13.6c0,2.6-1,4.6-2.9,6.2s-4.5,2.3-7.7,2.3h-9.2
				c-3.3,0-5.9-1-7.9-2.9s-2.9-4.5-2.9-7.7v-4.3h44.5v-12c0-7-2.2-12.7-6.6-16.9c-4.4-4.2-10.2-6.4-17.5-6.4h-9.6
				c-4.9,0-9.2,1-12.9,2.9c-3.7,2-6.6,4.7-8.6,8.3s-3.1,7.7-3.1,12.3v16.1c0,4.4,1,8.3,3.1,11.6c2,3.4,4.9,6,8.6,7.8
				c3.7,1.8,8,2.8,12.9,2.8L660.2,90z M583.5,78.1c-3.2,0-5.9-1.2-8.2-3.5c-2.3-2.4-3.6-5.4-4-9.2V51.5c1-3.4,2.6-6.1,4.9-8.2
				c2.3-2.1,4.8-3.2,7.5-3.2h7.7c3.3,0,5.9,1.1,7.9,3.3s3,5.1,3,8.6v12.2c0,4.2-1,7.5-3.1,10.1s-4.7,3.8-8,3.8L583.5,78.1z
				 M571.3,113V83.6c1.6,1.9,3.6,3.5,6.1,4.6s4.9,1.7,7.2,1.7h8c7,0,12.7-2.3,16.9-6.8s6.4-10.6,6.4-18.1V51.1
				c0-6.9-2.1-12.4-6.4-16.6c-4.3-4.2-9.9-6.3-16.9-6.3h-7.9c-2.6,0-5.2,0.7-7.9,2.2s-4.9,3.4-6.5,5.8v-7.1h-12.8V113H571.3z
				 M503.6,89l15.1-20.4L533.8,89h15.5l-22.7-30.5l21.8-29.4H533l-14.3,19.3l-14.4-19.3h-15.4l21.8,29.4L488.1,89H503.6z M483.1,89
				V76.9h-47.5V52.2h43.9V40h-43.9V17.2h47.5V5h-61.6v73.8c0,3,0.9,5.5,2.8,7.4s4.4,2.8,7.5,2.8H483.1z M375.8,77.8
				c-3.1,0-5.9-1.1-8.2-3.4c-2.4-2.3-3.7-5.2-4.1-8.7V54c0.3-4.1,1.7-7.4,4.1-9.9s5.4-3.8,8.9-3.8h7.7c3,0,5.5,1.1,7.4,3.3
				s2.9,5.1,2.9,8.7V65c0,3.8-1,6.9-3,9.3s-4.6,3.5-7.7,3.5H375.8z M385.2,90c4.5,0,8.5-1,11.9-3s6.2-4.8,8.1-8.5s2.9-7.9,2.9-12.7
				V51.5c0-4.6-1-8.6-2.9-12.1s-4.6-6.3-8-8.2c-3.4-2-7.4-2.9-11.8-2.9H377c-2.5,0-5,0.6-7.4,1.7s-4.5,2.7-6.1,4.7V5h-13.8v84h12.8
				v-7.7c1.6,2.5,3.7,4.5,6.4,6.2c2.7,1.6,5.3,2.5,7.9,2.5H385.2z M323.7,53.1h-31.2V52c0-3.7,1-6.7,3.1-8.9c2-2.3,4.7-3.4,8-3.4
				h9.7c3.1,0,5.6,1.1,7.6,3.2c1.9,2.2,2.9,5,2.9,8.5v1.7H323.7z M312.7,90c7.3,0,13.2-1.8,17.6-5.5s6.7-8.6,6.7-14.6h-13.6
				c0,2.6-1,4.6-2.9,6.2s-4.5,2.3-7.7,2.3h-9.2c-3.3,0-5.9-1-7.9-2.9s-2.9-4.5-2.9-7.7v-4.3h44.5v-12c0-7-2.2-12.7-6.6-16.9
				s-10.2-6.4-17.5-6.4h-9.6c-4.9,0-9.2,1-12.9,2.9c-3.7,2-6.6,4.7-8.6,8.3s-3.1,7.7-3.1,12.3v16.1c0,4.4,1,8.3,3.1,11.6
				c2,3.4,4.9,6,8.6,7.8s8,2.8,12.9,2.8L312.7,90z M238,90c2.6,0,5.3-0.8,8.1-2.5s5.1-3.9,6.9-6.6v8.2h13V29.2h-13.8v35.6
				c-0.9,3.9-2.5,7.1-5,9.5S242,78,239,78h-7.2c-2.4,0-4.3-0.9-5.8-2.8c-1.5-1.8-2.2-4.3-2.2-7.3V29.1H210v38.5
				c0,6.6,1.9,12,5.6,16.1s8.6,6.2,14.6,6.2h7.8V90z M153.8,89V54.8h41.9V42.6h-41.9V17.3h46.3V5h-60.4v84H153.8z M99.3,57.9H79.5
				V36.4h19.8V57.9z M79.5,89V69.1h19.8V89h13.1V69.1h13.9V57.8h-13.9V36.6h13.9V25.3h-13.9V5H99.3v20.3H79.5V5H66.4v20.3H52.5v11.3
				h13.9v21.2H52.5v11.3h13.9V89H79.5z"/>
		</g>
	</g>
</g>
</svg>
